# xmcd
#
# Track frame offsets:
#	180
#	16615
#	35449
#	56244
#	72494
#	92365
#	114326
#	128992
#	152244
#	171232
#	188814
#	207202
#	230032
#	249278
#	270616
#	297881
#
# Disc length: 4264 seconds
#
# Revision: 3
# Processed by: cddbd v1.5.1PL2 Copyright (c) Steve Scherf et al.
# Submitted via: audiograbber 1.83.01
#
DISCID=de10a610
DTITLE=Darrell Mansfield Band - Collection
DYEAR=1994
DGENRE=Kristen Blues
TTITLE0=My Love For You
TTITLE1=Home
TTITLE2=It's So Good To Know
TTITLE3=Jerusalem
TTITLE4=Giver Of Life
TTITLE5=The Prize
TTITLE6=This Is The Day
TTITLE7=He Has Overcome
TTITLE8=Walk Across Heaven
TTITLE9=Can't Do Nothin' Without Jesus Love
TTITLE10=Empty Hearts
TTITLE11=The Vision
TTITLE12=Bible Study
TTITLE13=After The Storm
TTITLE14=Waiting
TTITLE15=Flow Loke A River
EXTD=
EXTT0=
EXTT1=
EXTT2=
EXTT3=
EXTT4=
EXTT5=
EXTT6=
EXTT7=
EXTT8=
EXTT9=
EXTT10=
EXTT11=
EXTT12=
EXTT13=
EXTT14=
EXTT15=
PLAYORDER=
